<svg xmlns="http://www.w3.org/2000/svg" viewBox="0 0 393.84 60.75"><title>Middel 1</title><g id="Laag_2" data-name="Laag 2"><g id="Logo"><path d="M17.55,59.13q-5.67,0-8.28-3.78l-7.56,5.4H0L10.08,1.8a6.41,6.41,0,0,0-4.5,2.52L4.23,3.24A8.47,8.47,0,0,1,11,0a9,9,0,0,1,6.35,2.07,7.55,7.55,0,0,1,2.25,5.85q0,.72-.18,2.34-1.44,8-3.51,19.26,3.78-6.12,9.81-6.12T35,26.86q3.24,3.48,3.24,9.5,0,10.62-5.76,16.7T17.55,59.13Zm-.63-2.43q4.95,0,8.06-6.89t3.1-17.14c0-2.76-.29-4.65-.85-5.67a3.26,3.26,0,0,0-3.11-1.53q-2.25,0-4.64,2.7A21.13,21.13,0,0,0,16,33.25,14.33,14.33,0,0,0,14.94,36h-.18q-2.25,11.79-3.33,17.82Q13,56.7,16.92,56.7Z"/><path d="M48.51,55.66a11.58,11.58,0,0,1-3.6-8.72,37.17,37.17,0,0,1,.94-9A25.48,25.48,0,0,1,49,30.73a14.48,14.48,0,0,1,6.52-5.44,26.37,26.37,0,0,1,10.89-2q6.52,0,10.17,3.46t3.65,9.5q0,10.26-5.45,16.56T59,59.13Q52.11,59.13,48.51,55.66Zm6.57-5.8q0,7.2,4.18,7.2t7.47-7.25A41.41,41.41,0,0,0,70,32.58Q70,25,65.92,25T58.45,31.9Q55.08,38.79,55.08,49.86Z"/><path d="M90.45,55.66a11.58,11.58,0,0,1-3.6-8.72,37.17,37.17,0,0,1,.94-9,25.48,25.48,0,0,1,3.11-7.21,14.48,14.48,0,0,1,6.52-5.44,26.37,26.37,0,0,1,10.89-2q6.52,0,10.17,3.46t3.65,9.5q0,10.26-5.45,16.56T101,59.13Q94.05,59.13,90.45,55.66ZM97,49.86q0,7.2,4.18,7.2t7.47-7.25A41.41,41.41,0,0,0,112,32.58q0-7.56-4.1-7.56t-7.47,6.88Q97,38.79,97,49.86Z"/><path d="M141.75,41l-3.24,17.37H127.8L138,1.8a6.41,6.41,0,0,0-4.5,2.52l-1.35-1.08A8.47,8.47,0,0,1,138.91,0a9,9,0,0,1,6.35,2.07,7.55,7.55,0,0,1,2.25,5.85q0,.72-.18,2.34-2.07,11.43-4.5,24.66a19.25,19.25,0,0,1,6.48-8.55,15.09,15.09,0,0,1,9-3.06q4.77,0,6.7,1.89A6.33,6.33,0,0,1,167,29.92a6.47,6.47,0,0,1-1.71,4.64,5.88,5.88,0,0,1-4.46,1.8,5.5,5.5,0,0,1-4.23-1.58,6.57,6.57,0,0,1-1.48-4.68,5.53,5.53,0,0,1,2.16-4.72q-8.64,1-13.77,12.78a15.62,15.62,0,0,1,2.16-.18,13.06,13.06,0,0,1,7.51,1.89,8.58,8.58,0,0,1,3.56,4.63A36.36,36.36,0,0,1,157.86,50,17.62,17.62,0,0,0,159,54.63a2.9,2.9,0,0,0,2.88,1.89,3.71,3.71,0,0,0,3.24-1.71l1.35,1.08a5.53,5.53,0,0,1-2.79,2.25,13.37,13.37,0,0,1-5.54,1,10.46,10.46,0,0,1-5.94-1.71,9,9,0,0,1-3.55-4.27,43.34,43.34,0,0,1-1.62-5.09Q145.35,41.58,141.75,41Z"/><path d="M195,39.51a6.25,6.25,0,0,1-1.89-4.59A6.43,6.43,0,0,1,195,30.28a6.21,6.21,0,0,1,4.59-1.93,7.87,7.87,0,0,1,2.07.36q-1.71-3.15-6.39-3.15T187,31.5q-3.6,5.94-3.6,17.64c0,2.7.61,4.7,1.84,6a6.11,6.11,0,0,0,4.64,1.94A11.77,11.77,0,0,0,195,56a11.45,11.45,0,0,0,3.65-2.57,20,20,0,0,0,2.34-3.1q1.8-3,1.8-3.78l1.62.72a13.4,13.4,0,0,1-1.62,3.82,16.38,16.38,0,0,1-3,3.92A15.53,15.53,0,0,1,195,57.82a18.18,18.18,0,0,1-7,1.31q-7.29,0-11-3.47t-3.73-9.49q0-10.71,5.35-16.79t14.54-6.07q6.21,0,9.54,3.15A10.87,10.87,0,0,1,206,34.74a6.26,6.26,0,0,1-1.94,4.95,6.63,6.63,0,0,1-4.54,1.71A6.15,6.15,0,0,1,195,39.51Z"/><path d="M245.79,57.33q2.16,0,4.5-2.52l1.35,1.08a5.53,5.53,0,0,1-2.79,2.25,11.31,11.31,0,0,1-4.77,1q-8.19,0-8.19-7.38a68.4,68.4,0,0,1,1.62-11.25,70.58,70.58,0,0,0,1.62-10.62q0-3.87-3.69-3.87-3.06,0-5.9,4.14a35.38,35.38,0,0,0-4.63,11.25l-3,16.92h-10.8l10-56.52a6.41,6.41,0,0,0-4.5,2.52l-1.35-1.08A8.47,8.47,0,0,1,222.07,0a9,9,0,0,1,6.35,2.07,7.55,7.55,0,0,1,2.25,5.85q0,.72-.18,2.34l-3.78,21.33q3.69-8.28,11.43-8.28c3.54,0,6.3,1,8.28,3s3,4.79,3,8.33a63.64,63.64,0,0,1-1.71,10.75A80.11,80.11,0,0,0,245.79,57.33Z"/><path d="M261.72,55.66a11.58,11.58,0,0,1-3.6-8.72,37.17,37.17,0,0,1,.94-9,25.48,25.48,0,0,1,3.11-7.21,14.48,14.48,0,0,1,6.52-5.44,26.37,26.37,0,0,1,10.89-2q6.53,0,10.17,3.46t3.65,9.5q0,10.26-5.45,16.56t-15.7,6.3Q265.32,59.13,261.72,55.66Zm6.57-5.8q0,7.2,4.18,7.2t7.47-7.25a41.41,41.41,0,0,0,3.29-17.23q0-7.56-4.1-7.56t-7.47,6.88Q268.29,38.79,268.29,49.86Z"/><path d="M310,59.13a9.14,9.14,0,0,1-6.35-2.07,6.93,6.93,0,0,1-2.29-5.4q0-1.17,1.44-9.81l3-16.11H302l.18-1.62H306a64,64,0,0,0,9.81-.54l1.26-.27-6.21,34a6.41,6.41,0,0,0,4.5-2.52l1.35,1.08A8.43,8.43,0,0,1,310,59.13Zm-1.17-44.46a6.25,6.25,0,0,1-1.89-4.59,6.43,6.43,0,0,1,1.89-4.64,6.21,6.21,0,0,1,4.59-1.93A6.35,6.35,0,0,1,318,5.44,6.36,6.36,0,0,1,320,10.08,6.18,6.18,0,0,1,318,14.67a6.39,6.39,0,0,1-4.63,1.89A6.25,6.25,0,0,1,308.79,14.67Z"/><path d="M345.78,39.51a6.25,6.25,0,0,1-1.89-4.59,6.43,6.43,0,0,1,1.89-4.64,6.21,6.21,0,0,1,4.59-1.93,7.94,7.94,0,0,1,2.07.36q-1.72-3.15-6.4-3.15t-8.27,5.94q-3.6,5.94-3.6,17.64c0,2.7.61,4.7,1.84,6a6.11,6.11,0,0,0,4.64,1.94A11.8,11.8,0,0,0,345.73,56a11.45,11.45,0,0,0,3.65-2.57,20.67,20.67,0,0,0,2.34-3.1q1.8-3,1.8-3.78l1.62.72a13.4,13.4,0,0,1-1.62,3.82,16.4,16.4,0,0,1-3,3.92,15.34,15.34,0,0,1-4.76,2.83,18.25,18.25,0,0,1-7,1.31q-7.29,0-11-3.47T324,46.17q0-10.71,5.35-16.79t14.54-6.07q6.21,0,9.54,3.15a10.91,10.91,0,0,1,3.33,8.28,6.26,6.26,0,0,1-1.94,4.95,6.65,6.65,0,0,1-4.54,1.71A6.13,6.13,0,0,1,345.78,39.51Z"/><path d="M382.23,23.31q11.41,0,11.43,9.09,0,5.67-5.36,8.59t-15.25,3c-.13,2.16-.18,3.87-.18,5.13,0,2.7.61,4.7,1.84,6a6.11,6.11,0,0,0,4.64,1.94A11.77,11.77,0,0,0,384.43,56a11.45,11.45,0,0,0,3.65-2.57,20.67,20.67,0,0,0,2.34-3.1q1.8-3,1.8-3.78l1.62.72a13.4,13.4,0,0,1-1.62,3.82,16.38,16.38,0,0,1-3,3.92,15.53,15.53,0,0,1-4.77,2.83,18.21,18.21,0,0,1-7,1.31q-7.29,0-11-3.47t-3.73-9.49q0-10.71,5.31-16.79T382.23,23.31Zm7.42,4.18a6.73,6.73,0,0,0-5.22-1.93q-3.46,0-6.75,4.14t-4.36,12.24q18.09-.09,18.09-9.54A7.06,7.06,0,0,0,389.65,27.49Z"/></g></g></svg>